<?xml version="1.0" encoding="utf-8"?>
<svg id="Layer_1" data-name="Layer 1" xmlns="http://www.w3.org/2000/svg" width="260" height="248.83" viewBox="0 0 260 248.83">
  <defs>
    <style>
      .cls-1 {
        fill: #172e4f;
      }

      .cls-2 {
        fill: #3878b0;
      }

      .cls-3 {
        fill: #ebf2f2;
      }

      .cls-4 {
        fill: #459ce0;
      }

      .cls-5 {
        fill: #99c7e8;
      }

      .cls-6 {
        fill: #c2dbed;
      }

      .cls-7 {
        opacity: 0.3;
        isolation: isolate;
      }

      .cls-8 {
        fill: #ffe080;
      }
    </style>
  </defs>
  <g>
    <g>
      <g>
        <path class="cls-1" d="M155.9,112.15h-20a61.17,61.17,0,0,0-33.25,0h-20v5.9h0c0,5.42,3.57,10.84,10.73,15,14.32,8.27,37.53,8.27,51.85,0,7.16-4.13,10.74-9.55,10.74-15h0v-5.9Z"/>
        <path class="cls-2" d="M145.16,127.11c-14.32,8.27-37.53,8.27-51.85,0s-14.31-21.66,0-29.93,37.53-8.26,51.85,0S159.47,118.85,145.16,127.11Z"/>
      </g>
      <g>
        <path class="cls-1" d="M153.88,20H135a58.05,58.05,0,0,0-31.43,0H84.58v91h0c0,5.12,3.39,10.24,10.15,14.14,13.53,7.82,35.47,7.82,49,0,6.77-3.9,10.15-9,10.15-14.14h0V20Z"/>
        <path class="cls-3" d="M143.73,34.15c-13.53,7.81-35.47,7.81-49,0s-13.53-20.48,0-28.29,35.48-7.81,49,0S157.27,26.34,143.73,34.15Z"/>
        <path class="cls-2" d="M153.88,65c0,5.12-3.38,10.24-10.15,14.14-13.53,7.82-35.47,7.82-49,0C88,75.27,84.58,70.15,84.58,65h0v2.81C84.58,73,88,78.08,94.73,82c13.53,7.81,35.47,7.81,49,0,6.77-3.91,10.15-9,10.15-14.15V65Z"/>
        <path class="cls-2" d="M153.88,81.46c0,5.12-3.38,10.24-10.15,14.14-13.53,7.81-35.47,7.81-49,0-6.76-3.9-10.15-9-10.15-14.14h0v2.81c0,5.12,3.39,10.24,10.15,14.14,13.53,7.81,35.47,7.81,49,0,6.77-3.9,10.15-9,10.15-14.14V81.46Z"/>
        <path class="cls-1" d="M143.1,22.4c-.81-2.75-3.07-5.37-6.74-7.5-9.46-5.46-24.79-5.46-34.26,0-3.67,2.13-5.92,4.75-6.73,7.5-1.31-4.32.94-8.94,6.73-12.28,9.47-5.46,24.8-5.46,34.26,0C142.15,13.46,144.41,18.08,143.1,22.4Z"/>
        <path class="cls-4" d="M143.1,22.4c-.82,2.75-3.07,5.37-6.74,7.5-9.46,5.46-24.79,5.46-34.26,0-3.67-2.13-5.91-4.75-6.73-7.5.81-2.75,3.06-5.37,6.73-7.5,9.47-5.46,24.8-5.46,34.26,0C140,17,142.29,19.65,143.1,22.4Z"/>
      </g>
    </g>
    <g>
      <g>
        <path class="cls-1" d="M73.32,159.82h-20a61.36,61.36,0,0,0-33.25,0H0v5.91H0c0,5.42,3.58,10.83,10.74,15,14.32,8.27,37.53,8.27,51.84,0,7.16-4.13,10.74-9.54,10.74-15h0Z"/>
        <path class="cls-2" d="M62.58,174.79c-14.31,8.26-37.52,8.26-51.84,0s-14.32-21.67,0-29.94,37.53-8.26,51.84,0S76.9,166.52,62.58,174.79Z"/>
      </g>
      <g>
        <path class="cls-1" d="M71.31,67.68H52.37a58,58,0,0,0-31.42,0H2v91H2c0,5.12,3.38,10.24,10.15,14.15,13.53,7.81,35.47,7.81,49,0,6.77-3.91,10.15-9,10.15-14.15h0v-91Z"/>
        <path class="cls-3" d="M61.16,81.82c-13.53,7.82-35.47,7.82-49,0s-13.53-20.48,0-28.28,35.47-7.82,49,0S74.69,74,61.16,81.82Z"/>
        <path class="cls-2" d="M71.31,112.7c0,5.12-3.38,10.24-10.15,14.15-13.53,7.81-35.47,7.81-49,0C5.39,122.94,2,117.82,2,112.7H2v2.81c0,5.12,3.38,10.24,10.15,14.15,13.53,7.81,35.47,7.81,49,0,6.77-3.91,10.15-9,10.15-14.15V112.7Z"/>
        <path class="cls-2" d="M71.31,129.13c0,5.12-3.38,10.24-10.15,14.15-13.53,7.81-35.47,7.81-49,0C5.39,139.37,2,134.25,2,129.13H2v2.81c0,5.12,3.38,10.24,10.15,14.15,13.53,7.81,35.47,7.81,49,0,6.77-3.91,10.15-9,10.15-14.15v-2.81Z"/>
        <path class="cls-1" d="M60.53,70.08c-.82-2.75-3.07-5.38-6.74-7.5-9.46-5.46-24.8-5.46-34.26,0-3.67,2.12-5.93,4.75-6.74,7.5-1.3-4.33,1-8.95,6.74-12.29,9.46-5.46,24.8-5.46,34.26,0C59.58,61.13,61.83,65.75,60.53,70.08Z"/>
        <path class="cls-4" d="M60.53,70.08c-.83,2.74-3.07,5.37-6.74,7.49C44.33,83,29,83,19.53,77.57c-3.67-2.12-5.92-4.75-6.74-7.49.81-2.75,3.07-5.38,6.74-7.5,9.46-5.46,24.8-5.46,34.26,0C57.46,64.7,59.71,67.33,60.53,70.08Z"/>
      </g>
    </g>
    <g>
      <polygon class="cls-3" points="260 143.56 100.38 235.72 30.26 195.24 189.89 103.08 260 143.56"/>
      <polygon class="cls-5" points="190.75 109.37 249.12 143.06 242.09 147.11 190.75 117.47 190.75 109.37"/>
      <polygon class="cls-6" points="190.75 117.47 48.18 199.8 41.15 195.74 190.75 109.37 190.75 117.47"/>
      <polygon class="cls-4" points="242.09 147.11 99.51 229.44 48.18 199.8 190.75 117.47 242.09 147.11"/>
      <polygon class="cls-5" points="100.38 248.83 30.26 208.35 30.26 195.24 100.38 235.72 100.38 248.83"/>
      <polygon class="cls-6" points="100.38 248.83 260 156.67 260 143.56 100.38 235.72 100.38 248.83"/>
    </g>
    <g>
      <g>
        <path class="cls-3" d="M146.73,83.54,149,84.82l-6,10.39-2.21-1.28h0a3,3,0,0,1-1.25-2.74,9.38,9.38,0,0,1,4.24-7.35A3,3,0,0,1,146.73,83.54Z"/>
        <path class="cls-1" d="M146,85.12a9.35,9.35,0,0,0-4.24,7.35c0,2.71,1.9,3.8,4.24,2.45a9.39,9.39,0,0,0,4.24-7.35C150.19,84.86,148.29,83.77,146,85.12Z"/>
      </g>
      <path class="cls-7" d="M190.94,153.42a10.72,10.72,0,0,1-9.71,0c-2.68-1.55-2.68-4.06,0-5.6a10.72,10.72,0,0,1,9.71,0C193.62,149.36,193.62,151.87,190.94,153.42Z"/>
      <path class="cls-8" d="M175.32,101.09,149,85.8a2.55,2.55,0,0,0-2.63.22,8.1,8.1,0,0,0-3.65,6.32,2.52,2.52,0,0,0,1.13,2.38h0l26.31,15.33c5.84,3.37,11,12.24,11,19v21.2h0a2.58,2.58,0,0,0,1.51,2.12,8.07,8.07,0,0,0,7.29,0,2.59,2.59,0,0,0,1.52-2.12h0V129C191.45,118.59,184.36,106.32,175.32,101.09Z"/>
    </g>
    <g>
      <g>
        <path class="cls-3" d="M64.15,131.21l2.23,1.29-6,10.39-2.22-1.28h0a3,3,0,0,1-1.24-2.75,9.38,9.38,0,0,1,4.24-7.35A3,3,0,0,1,64.15,131.21Z"/>
        <path class="cls-1" d="M63.38,132.79a9.39,9.39,0,0,0-4.25,7.35c0,2.71,1.9,3.81,4.25,2.45a9.38,9.38,0,0,0,4.24-7.35C67.62,132.54,65.72,131.44,63.38,132.79Z"/>
      </g>
      <path class="cls-7" d="M108.59,201a10.72,10.72,0,0,1-9.71,0c-2.68-1.54-2.68-4.06,0-5.6a10.72,10.72,0,0,1,9.71,0C111.27,197,111.27,199.47,108.59,201Z"/>
      <path class="cls-8" d="M92.74,148.77,66.42,133.48a2.53,2.53,0,0,0-2.63.22A8.07,8.07,0,0,0,60.14,140a2.54,2.54,0,0,0,1.12,2.38h0l26.31,15.33c5.84,3.37,11,12.24,11,19v21.21h0a2.54,2.54,0,0,0,1.51,2.11,8,8,0,0,0,7.29,0,2.54,2.54,0,0,0,1.51-2.11h0V176.71C108.87,166.27,101.79,154,92.74,148.77Z"/>
    </g>
  </g>
</svg>
